<?xml version="1.0" encoding="UTF-8" standalone="no"?>
<!DOCTYPE svg PUBLIC "-//W3C//DTD SVG 1.1//EN"
 "http://www.w3.org/Graphics/SVG/1.1/DTD/svg11.dtd">
<!-- Generated by graphviz version 2.42.4 (0)
 -->
<!-- Title: G Pages: 1 -->
<svg role="img" aria-label="05-control-flow-primitives" width="1062pt" height="429pt"
 viewBox="0.00 0.00 1061.82 428.82" xmlns="http://www.w3.org/2000/svg" xmlns:xlink="http://www.w3.org/1999/xlink">
<g id="graph0" class="graph" transform="scale(1 1) rotate(0) translate(20.16 408.66)">
<title>G</title>
<text text-anchor="middle" x="510.75" y="-366.9" font-family="Noto Sans CJK SC" font-size="22.00">LangGraph 控制流原语全景</text>
<!-- start -->
<g id="node1" class="node">
<title>start</title>
<path fill="#eff6ff" stroke="#2563eb" stroke-width="1.35" d="M551.5,-356.5C551.5,-356.5 433.5,-356.5 433.5,-356.5 427.5,-356.5 421.5,-350.5 421.5,-344.5 421.5,-344.5 421.5,-332.5 421.5,-332.5 421.5,-326.5 427.5,-320.5 433.5,-320.5 433.5,-320.5 551.5,-320.5 551.5,-320.5 557.5,-320.5 563.5,-326.5 563.5,-332.5 563.5,-332.5 563.5,-344.5 563.5,-344.5 563.5,-350.5 557.5,-356.5 551.5,-356.5"/>
<text text-anchor="middle" x="492.5" y="-335" font-family="Noto Sans CJK SC" font-size="15.00" fill="#0f172a">当前节点 / START</text>
</g>
<!-- normal_edge -->
<g id="node2" class="node">
<title>normal_edge</title>
<path fill="#ffffff" stroke="#475569" stroke-width="1.35" d="M105,-262C105,-262 12,-262 12,-262 6,-262 0,-256 0,-250 0,-250 0,-222 0,-222 0,-216 6,-210 12,-210 12,-210 105,-210 105,-210 111,-210 117,-216 117,-222 117,-222 117,-250 117,-250 117,-256 111,-262 105,-262"/>
<text text-anchor="middle" x="58.5" y="-241" font-family="Noto Sans CJK SC" font-size="15.00" fill="#0f172a">Normal Edge</text>
<text text-anchor="middle" x="58.5" y="-224" font-family="Noto Sans CJK SC" font-size="15.00" fill="#0f172a">固定下一跳</text>
</g>
<!-- start&#45;&gt;normal_edge -->
<g id="edge1" class="edge">
<title>start&#45;&gt;normal_edge</title>
<path fill="none" stroke="#64748b" stroke-width="1.35" d="M421.25,-329.39C347.72,-319.83 230.29,-301.24 132.5,-270.5 127.44,-268.91 122.27,-267.06 117.12,-265.07"/>
<polygon fill="#64748b" stroke="#64748b" stroke-width="1.35" points="118.1,-262.44 109.63,-262.05 116.01,-267.64 118.1,-262.44"/>
</g>
<!-- cond -->
<g id="node3" class="node">
<title>cond</title>
<path fill="#ffffff" stroke="#475569" stroke-width="1.35" d="M338,-270.5C338,-270.5 161,-270.5 161,-270.5 155,-270.5 149,-264.5 149,-258.5 149,-258.5 149,-213.5 149,-213.5 149,-207.5 155,-201.5 161,-201.5 161,-201.5 338,-201.5 338,-201.5 344,-201.5 350,-207.5 350,-213.5 350,-213.5 350,-258.5 350,-258.5 350,-264.5 344,-270.5 338,-270.5"/>
<text text-anchor="middle" x="249.5" y="-249.5" font-family="Noto Sans CJK SC" font-size="15.00" fill="#0f172a">Conditional Edge</text>
<text text-anchor="middle" x="249.5" y="-232.5" font-family="Noto Sans CJK SC" font-size="15.00" fill="#0f172a">add_conditional_edges()</text>
<text text-anchor="middle" x="249.5" y="-215.5" font-family="Noto Sans CJK SC" font-size="15.00" fill="#0f172a">候选节点编译期确定</text>
</g>
<!-- start&#45;&gt;cond -->
<g id="edge2" class="edge">
<title>start&#45;&gt;cond</title>
<path fill="none" stroke="#64748b" stroke-width="1.35" d="M451.28,-320.45C420.43,-307.69 377.09,-289.76 338.47,-273.8"/>
<polygon fill="#64748b" stroke="#64748b" stroke-width="1.35" points="339.28,-271.1 330.82,-270.63 337.14,-276.27 339.28,-271.1"/>
</g>
<!-- cmd -->
<g id="node4" class="node">
<title>cmd</title>
<path fill="#ffffff" stroke="#475569" stroke-width="1.35" d="M591,-262C591,-262 394,-262 394,-262 388,-262 382,-256 382,-250 382,-250 382,-222 382,-222 382,-216 388,-210 394,-210 394,-210 591,-210 591,-210 597,-210 603,-216 603,-222 603,-222 603,-250 603,-250 603,-256 597,-262 591,-262"/>
<text text-anchor="middle" x="492.5" y="-241" font-family="Noto Sans CJK SC" font-size="15.00" fill="#0f172a">Command(goto=...)</text>
<text text-anchor="middle" x="492.5" y="-224" font-family="Noto Sans CJK SC" font-size="15.00" fill="#0f172a">节点内返回状态更新 + 下一跳</text>
</g>
<!-- start&#45;&gt;cmd -->
<g id="edge3" class="edge">
<title>start&#45;&gt;cmd</title>
<path fill="none" stroke="#64748b" stroke-width="1.35" d="M492.5,-320.45C492.5,-306.81 492.5,-287.26 492.5,-270.52"/>
<polygon fill="#64748b" stroke="#64748b" stroke-width="1.35" points="495.3,-270.06 492.5,-262.06 489.7,-270.06 495.3,-270.06"/>
</g>
<!-- send -->
<g id="node5" class="node">
<title>send</title>
<path fill="#ffffff" stroke="#475569" stroke-width="1.35" d="M815.5,-262C815.5,-262 647.5,-262 647.5,-262 641.5,-262 635.5,-256 635.5,-250 635.5,-250 635.5,-222 635.5,-222 635.5,-216 641.5,-210 647.5,-210 647.5,-210 815.5,-210 815.5,-210 821.5,-210 827.5,-216 827.5,-222 827.5,-222 827.5,-250 827.5,-250 827.5,-256 821.5,-262 815.5,-262"/>
<text text-anchor="middle" x="731.5" y="-241" font-family="Noto Sans CJK SC" font-size="15.00" fill="#0f172a">Send(node, arg)</text>
<text text-anchor="middle" x="731.5" y="-224" font-family="Noto Sans CJK SC" font-size="15.00" fill="#0f172a">运行时创建多个任务实例</text>
</g>
<!-- start&#45;&gt;send -->
<g id="edge4" class="edge">
<title>start&#45;&gt;send</title>
<path fill="none" stroke="#64748b" stroke-width="1.35" d="M533.04,-320.45C568.97,-305.34 622.15,-282.98 664.41,-265.21"/>
<polygon fill="#64748b" stroke="#64748b" stroke-width="1.35" points="665.61,-267.74 671.9,-262.06 663.44,-262.58 665.61,-267.74"/>
</g>
<!-- defer -->
<g id="node6" class="node">
<title>defer</title>
<path fill="#ffffff" stroke="#475569" stroke-width="1.35" d="M1009.5,-262C1009.5,-262 871.5,-262 871.5,-262 865.5,-262 859.5,-256 859.5,-250 859.5,-250 859.5,-222 859.5,-222 859.5,-216 865.5,-210 871.5,-210 871.5,-210 1009.5,-210 1009.5,-210 1015.5,-210 1021.5,-216 1021.5,-222 1021.5,-222 1021.5,-250 1021.5,-250 1021.5,-256 1015.5,-262 1009.5,-262"/>
<text text-anchor="middle" x="940.5" y="-241" font-family="Noto Sans CJK SC" font-size="15.00" fill="#0f172a">defer=True</text>
<text text-anchor="middle" x="940.5" y="-224" font-family="Noto Sans CJK SC" font-size="15.00" fill="#0f172a">常规任务完成后触发</text>
</g>
<!-- start&#45;&gt;defer -->
<g id="edge5" class="edge">
<title>start&#45;&gt;defer</title>
<path fill="none" stroke="#64748b" stroke-width="1.35" d="M563.77,-326.98C635.17,-315.73 747.89,-295.99 843.5,-270.5 850.18,-268.72 857.07,-266.7 863.94,-264.57"/>
<polygon fill="#64748b" stroke="#64748b" stroke-width="1.35" points="865.21,-267.11 871.99,-262.02 863.52,-261.77 865.21,-267.11"/>
</g>
<!-- seq -->
<g id="node7" class="node">
<title>seq</title>
<path fill="#ecfdf5" stroke="#059669" stroke-width="1.35" d="M167,-143.5C167,-143.5 104,-143.5 104,-143.5 98,-143.5 92,-137.5 92,-131.5 92,-131.5 92,-119.5 92,-119.5 92,-113.5 98,-107.5 104,-107.5 104,-107.5 167,-107.5 167,-107.5 173,-107.5 179,-113.5 179,-119.5 179,-119.5 179,-131.5 179,-131.5 179,-137.5 173,-143.5 167,-143.5"/>
<text text-anchor="middle" x="135.5" y="-122" font-family="Noto Sans CJK SC" font-size="15.00" fill="#0f172a">顺序执行</text>
</g>
<!-- normal_edge&#45;&gt;seq -->
<g id="edge6" class="edge">
<title>normal_edge&#45;&gt;seq</title>
<path fill="none" stroke="#64748b" stroke-width="1.35" d="M76.36,-209.83C89.07,-191.93 106.03,-168.02 118.53,-150.4"/>
<polygon fill="#64748b" stroke="#64748b" stroke-width="1.35" points="120.91,-151.89 123.26,-143.75 116.34,-148.65 120.91,-151.89"/>
</g>
<!-- branch -->
<g id="node8" class="node">
<title>branch</title>
<path fill="#ecfdf5" stroke="#059669" stroke-width="1.35" d="M353,-143.5C353,-143.5 248,-143.5 248,-143.5 242,-143.5 236,-137.5 236,-131.5 236,-131.5 236,-119.5 236,-119.5 236,-113.5 242,-107.5 248,-107.5 248,-107.5 353,-107.5 353,-107.5 359,-107.5 365,-113.5 365,-119.5 365,-119.5 365,-131.5 365,-131.5 365,-137.5 359,-143.5 353,-143.5"/>
<text text-anchor="middle" x="300.5" y="-122" font-family="Noto Sans CJK SC" font-size="15.00" fill="#0f172a">单路 / 多路分支</text>
</g>
<!-- cond&#45;&gt;branch -->
<g id="edge8" class="edge">
<title>cond&#45;&gt;branch</title>
<path fill="none" stroke="#64748b" stroke-width="1.35" d="M265.36,-201.26C273.03,-184.95 282.06,-165.73 289.05,-150.86"/>
<polygon fill="#64748b" stroke="#64748b" stroke-width="1.35" points="291.63,-151.95 292.5,-143.52 286.56,-149.57 291.63,-151.95"/>
</g>
<!-- dynamic -->
<g id="node9" class="node">
<title>dynamic</title>
<path fill="#ecfdf5" stroke="#059669" stroke-width="1.35" d="M524,-143.5C524,-143.5 461,-143.5 461,-143.5 455,-143.5 449,-137.5 449,-131.5 449,-131.5 449,-119.5 449,-119.5 449,-113.5 455,-107.5 461,-107.5 461,-107.5 524,-107.5 524,-107.5 530,-107.5 536,-113.5 536,-119.5 536,-119.5 536,-131.5 536,-131.5 536,-137.5 530,-143.5 524,-143.5"/>
<text text-anchor="middle" x="492.5" y="-122" font-family="Noto Sans CJK SC" font-size="15.00" fill="#0f172a">动态跳转</text>
</g>
<!-- cmd&#45;&gt;dynamic -->
<g id="edge10" class="edge">
<title>cmd&#45;&gt;dynamic</title>
<path fill="none" stroke="#64748b" stroke-width="1.35" d="M492.5,-209.83C492.5,-192.4 492.5,-169.28 492.5,-151.82"/>
<polygon fill="#64748b" stroke="#64748b" stroke-width="1.35" points="495.3,-151.75 492.5,-143.75 489.7,-151.75 495.3,-151.75"/>
</g>
<!-- fanout -->
<g id="node10" class="node">
<title>fanout</title>
<path fill="#ecfdf5" stroke="#059669" stroke-width="1.35" d="M727,-151.5C727,-151.5 632,-151.5 632,-151.5 626,-151.5 620,-145.5 620,-139.5 620,-139.5 620,-111.5 620,-111.5 620,-105.5 626,-99.5 632,-99.5 632,-99.5 727,-99.5 727,-99.5 733,-99.5 739,-105.5 739,-111.5 739,-111.5 739,-139.5 739,-139.5 739,-145.5 733,-151.5 727,-151.5"/>
<text text-anchor="middle" x="679.5" y="-130.5" font-family="Noto Sans CJK SC" font-size="15.00" fill="#0f172a">动态 Fan&#45;out</text>
<text text-anchor="middle" x="679.5" y="-113.5" font-family="Noto Sans CJK SC" font-size="15.00" fill="#0f172a">Map / Worker</text>
</g>
<!-- send&#45;&gt;fanout -->
<g id="edge12" class="edge">
<title>send&#45;&gt;fanout</title>
<path fill="none" stroke="#64748b" stroke-width="1.35" d="M719.44,-209.83C712.15,-194.63 702.8,-175.11 694.97,-158.78"/>
<polygon fill="#64748b" stroke="#64748b" stroke-width="1.35" points="697.48,-157.53 691.5,-151.53 692.43,-159.95 697.48,-157.53"/>
</g>
<!-- cleanup -->
<g id="node11" class="node">
<title>cleanup</title>
<path fill="#ecfdf5" stroke="#059669" stroke-width="1.35" d="M949,-143.5C949,-143.5 832,-143.5 832,-143.5 826,-143.5 820,-137.5 820,-131.5 820,-131.5 820,-119.5 820,-119.5 820,-113.5 826,-107.5 832,-107.5 832,-107.5 949,-107.5 949,-107.5 955,-107.5 961,-113.5 961,-119.5 961,-119.5 961,-131.5 961,-131.5 961,-137.5 955,-143.5 949,-143.5"/>
<text text-anchor="middle" x="890.5" y="-122" font-family="Noto Sans CJK SC" font-size="15.00" fill="#0f172a">审计 / 汇总 / 清理</text>
</g>
<!-- defer&#45;&gt;cleanup -->
<g id="edge14" class="edge">
<title>defer&#45;&gt;cleanup</title>
<path fill="none" stroke="#64748b" stroke-width="1.35" d="M928.9,-209.83C920.8,-192.24 910.02,-168.86 901.95,-151.34"/>
<polygon fill="#64748b" stroke="#64748b" stroke-width="1.35" points="904.34,-149.84 898.45,-143.75 899.26,-152.19 904.34,-149.84"/>
</g>
<!-- end -->
<g id="node12" class="node">
<title>end</title>
<ellipse fill="#fff7ed" stroke="#ea580c" stroke-width="1.35" cx="492.5" cy="-24.75" rx="79.39" ry="25"/>
<text text-anchor="middle" x="492.5" y="-21.25" font-family="Noto Sans CJK SC" font-size="15.00" fill="#0f172a">Fan&#45;in / END</text>
</g>
<!-- seq&#45;&gt;end -->
<g id="edge7" class="edge">
<title>seq&#45;&gt;end</title>
<path fill="none" stroke="#64748b" stroke-width="1.35" d="M179.04,-111.31C192.03,-107.44 206.33,-103.24 219.5,-99.5 289.5,-79.63 369.95,-58.05 425.29,-43.4"/>
<polygon fill="#64748b" stroke="#64748b" stroke-width="1.35" points="426.25,-46.04 433.27,-41.28 424.82,-40.62 426.25,-46.04"/>
</g>
<!-- branch&#45;&gt;end -->
<g id="edge9" class="edge">
<title>branch&#45;&gt;end</title>
<path fill="none" stroke="#64748b" stroke-width="1.35" d="M333.94,-107.3C364.84,-91.41 411.04,-67.64 445.61,-49.86"/>
<polygon fill="#64748b" stroke="#64748b" stroke-width="1.35" points="446.97,-52.31 452.8,-46.16 444.41,-47.33 446.97,-52.31"/>
</g>
<!-- dynamic&#45;&gt;end -->
<g id="edge11" class="edge">
<title>dynamic&#45;&gt;end</title>
<path fill="none" stroke="#64748b" stroke-width="1.35" d="M492.5,-107.3C492.5,-93.74 492.5,-74.46 492.5,-58.05"/>
<polygon fill="#64748b" stroke="#64748b" stroke-width="1.35" points="495.3,-57.78 492.5,-49.78 489.7,-57.78 495.3,-57.78"/>
</g>
<!-- fanout&#45;&gt;end -->
<g id="edge13" class="edge">
<title>fanout&#45;&gt;end</title>
<path fill="none" stroke="#64748b" stroke-width="1.35" d="M631.83,-99.32C603.32,-84.27 567.26,-65.23 538.97,-50.29"/>
<polygon fill="#64748b" stroke="#64748b" stroke-width="1.35" points="539.96,-47.65 531.58,-46.39 537.35,-52.6 539.96,-47.65"/>
</g>
<!-- cleanup&#45;&gt;end -->
<g id="edge15" class="edge">
<title>cleanup&#45;&gt;end</title>
<path fill="none" stroke="#64748b" stroke-width="1.35" d="M821.63,-107.41C748.53,-89.27 633.73,-60.79 560.84,-42.71"/>
<polygon fill="#64748b" stroke="#64748b" stroke-width="1.35" points="561.48,-39.98 553.05,-40.77 560.14,-45.41 561.48,-39.98"/>
</g>
</g>
</svg>
