<?xml version="1.0" encoding="UTF-8" standalone="no"?>
<!DOCTYPE svg PUBLIC "-//W3C//DTD SVG 1.1//EN"
 "http://www.w3.org/Graphics/SVG/1.1/DTD/svg11.dtd">
<!-- Generated by graphviz version 2.42.4 (0)
 -->
<!-- Title: G Pages: 1 -->
<svg role="img" aria-label="18-six-workflow-agent-patterns" width="1233pt" height="358pt"
 viewBox="0.00 0.00 1233.32 357.82" xmlns="http://www.w3.org/2000/svg" xmlns:xlink="http://www.w3.org/1999/xlink">
<g id="graph0" class="graph" transform="scale(1 1) rotate(0) translate(20.16 337.66)">
<title>G</title>
<text text-anchor="middle" x="596.5" y="-295.9" font-family="Noto Sans CJK SC" font-size="22.00">六类 Workflow / Agent 运行图模式</text>
<!-- decide -->
<g id="node1" class="node">
<title>decide</title>
<path fill="#eff6ff" stroke="#2563eb" stroke-width="1.35" d="M528.33,-282.72C528.33,-282.72 404.67,-253.28 404.67,-253.28 398.84,-251.89 398.84,-249.11 404.67,-247.72 404.67,-247.72 528.33,-218.28 528.33,-218.28 534.16,-216.89 545.84,-216.89 551.67,-218.28 551.67,-218.28 675.33,-247.72 675.33,-247.72 681.16,-249.11 681.16,-251.89 675.33,-253.28 675.33,-253.28 551.67,-282.72 551.67,-282.72 545.84,-284.11 534.16,-284.11 528.33,-282.72"/>
<text text-anchor="middle" x="540" y="-247" font-family="Noto Sans CJK SC" font-size="15.00" fill="#0f172a">任务结构与控制权</text>
</g>
<!-- chain -->
<g id="node2" class="node">
<title>chain</title>
<path fill="#ffffff" stroke="#475569" stroke-width="1.35" d="M134,-152.5C134,-152.5 12,-152.5 12,-152.5 6,-152.5 0,-146.5 0,-140.5 0,-140.5 0,-112.5 0,-112.5 0,-106.5 6,-100.5 12,-100.5 12,-100.5 134,-100.5 134,-100.5 140,-100.5 146,-106.5 146,-112.5 146,-112.5 146,-140.5 146,-140.5 146,-146.5 140,-152.5 134,-152.5"/>
<text text-anchor="middle" x="73" y="-131.5" font-family="Noto Sans CJK SC" font-size="15.00" fill="#0f172a">Prompt Chaining</text>
<text text-anchor="middle" x="73" y="-114.5" font-family="Noto Sans CJK SC" font-size="15.00" fill="#0f172a">固定顺序 + Gate</text>
</g>
<!-- decide&#45;&gt;chain -->
<g id="edge1" class="edge">
<title>decide&#45;&gt;chain</title>
<path fill="none" stroke="#64748b" stroke-width="1.35" d="M470.21,-232.09C394.26,-213.03 269.31,-181.33 162,-152.5 159.44,-151.81 156.85,-151.11 154.22,-150.39"/>
<polygon fill="#64748b" stroke="#64748b" stroke-width="1.35" points="154.76,-147.64 146.3,-148.23 153.28,-153.04 154.76,-147.64"/>
<text text-anchor="middle" x="321.5" y="-180.9" font-family="Noto Sans CJK SC" font-size="12.00" fill="#334155">步骤固定</text>
</g>
<!-- parallel -->
<g id="node3" class="node">
<title>parallel</title>
<path fill="#ffffff" stroke="#475569" stroke-width="1.35" d="M335.5,-152.5C335.5,-152.5 190.5,-152.5 190.5,-152.5 184.5,-152.5 178.5,-146.5 178.5,-140.5 178.5,-140.5 178.5,-112.5 178.5,-112.5 178.5,-106.5 184.5,-100.5 190.5,-100.5 190.5,-100.5 335.5,-100.5 335.5,-100.5 341.5,-100.5 347.5,-106.5 347.5,-112.5 347.5,-112.5 347.5,-140.5 347.5,-140.5 347.5,-146.5 341.5,-152.5 335.5,-152.5"/>
<text text-anchor="middle" x="263" y="-131.5" font-family="Noto Sans CJK SC" font-size="15.00" fill="#0f172a">Parallelization</text>
<text text-anchor="middle" x="263" y="-114.5" font-family="Noto Sans CJK SC" font-size="15.00" fill="#0f172a">固定 Fan&#45;out / Fan&#45;in</text>
</g>
<!-- decide&#45;&gt;parallel -->
<g id="edge2" class="edge">
<title>decide&#45;&gt;parallel</title>
<path fill="none" stroke="#64748b" stroke-width="1.35" d="M489.84,-227.4C444.31,-207.35 376.93,-177.68 327.43,-155.88"/>
<polygon fill="#64748b" stroke="#64748b" stroke-width="1.35" points="328.41,-153.24 319.96,-152.58 326.15,-158.37 328.41,-153.24"/>
<text text-anchor="middle" x="438.5" y="-180.9" font-family="Noto Sans CJK SC" font-size="12.00" fill="#334155">独立固定任务</text>
</g>
<!-- routing -->
<g id="node4" class="node">
<title>routing</title>
<path fill="#ffffff" stroke="#475569" stroke-width="1.35" d="M535,-152.5C535,-152.5 391,-152.5 391,-152.5 385,-152.5 379,-146.5 379,-140.5 379,-140.5 379,-112.5 379,-112.5 379,-106.5 385,-100.5 391,-100.5 391,-100.5 535,-100.5 535,-100.5 541,-100.5 547,-106.5 547,-112.5 547,-112.5 547,-140.5 547,-140.5 547,-146.5 541,-152.5 535,-152.5"/>
<text text-anchor="middle" x="463" y="-131.5" font-family="Noto Sans CJK SC" font-size="15.00" fill="#0f172a">Routing</text>
<text text-anchor="middle" x="463" y="-114.5" font-family="Noto Sans CJK SC" font-size="15.00" fill="#0f172a">输入分类 → 专用路径</text>
</g>
<!-- decide&#45;&gt;routing -->
<g id="edge3" class="edge">
<title>decide&#45;&gt;routing</title>
<path fill="none" stroke="#64748b" stroke-width="1.35" d="M521.16,-219.65C509.69,-201.47 495.02,-178.23 483.29,-159.64"/>
<polygon fill="#64748b" stroke="#64748b" stroke-width="1.35" points="485.42,-157.78 478.79,-152.51 480.69,-160.77 485.42,-157.78"/>
<text text-anchor="middle" x="538.5" y="-180.9" font-family="Noto Sans CJK SC" font-size="12.00" fill="#334155">固定候选路径</text>
</g>
<!-- orch -->
<g id="node5" class="node">
<title>orch</title>
<path fill="#ffffff" stroke="#475569" stroke-width="1.35" d="M735.5,-152.5C735.5,-152.5 590.5,-152.5 590.5,-152.5 584.5,-152.5 578.5,-146.5 578.5,-140.5 578.5,-140.5 578.5,-112.5 578.5,-112.5 578.5,-106.5 584.5,-100.5 590.5,-100.5 590.5,-100.5 735.5,-100.5 735.5,-100.5 741.5,-100.5 747.5,-106.5 747.5,-112.5 747.5,-112.5 747.5,-140.5 747.5,-140.5 747.5,-146.5 741.5,-152.5 735.5,-152.5"/>
<text text-anchor="middle" x="663" y="-131.5" font-family="Noto Sans CJK SC" font-size="15.00" fill="#0f172a">Orchestrator&#45;worker</text>
<text text-anchor="middle" x="663" y="-114.5" font-family="Noto Sans CJK SC" font-size="15.00" fill="#0f172a">动态 Send + Reducer</text>
</g>
<!-- decide&#45;&gt;orch -->
<g id="edge4" class="edge">
<title>decide&#45;&gt;orch</title>
<path fill="none" stroke="#64748b" stroke-width="1.35" d="M567.91,-221.81C586.92,-202.96 612.12,-177.97 631.79,-158.45"/>
<polygon fill="#64748b" stroke="#64748b" stroke-width="1.35" points="634,-160.2 637.71,-152.58 630.06,-156.23 634,-160.2"/>
<text text-anchor="middle" x="655.5" y="-180.9" font-family="Noto Sans CJK SC" font-size="12.00" fill="#334155">子任务数量未知</text>
</g>
<!-- eval -->
<g id="node6" class="node">
<title>eval</title>
<path fill="#ffffff" stroke="#475569" stroke-width="1.35" d="M956.5,-152.5C956.5,-152.5 791.5,-152.5 791.5,-152.5 785.5,-152.5 779.5,-146.5 779.5,-140.5 779.5,-140.5 779.5,-112.5 779.5,-112.5 779.5,-106.5 785.5,-100.5 791.5,-100.5 791.5,-100.5 956.5,-100.5 956.5,-100.5 962.5,-100.5 968.5,-106.5 968.5,-112.5 968.5,-112.5 968.5,-140.5 968.5,-140.5 968.5,-146.5 962.5,-152.5 956.5,-152.5"/>
<text text-anchor="middle" x="874" y="-131.5" font-family="Noto Sans CJK SC" font-size="15.00" fill="#0f172a">Evaluator&#45;optimizer</text>
<text text-anchor="middle" x="874" y="-114.5" font-family="Noto Sans CJK SC" font-size="15.00" fill="#0f172a">生成 → 评价 → 改进循环</text>
</g>
<!-- decide&#45;&gt;eval -->
<g id="edge5" class="edge">
<title>decide&#45;&gt;eval</title>
<path fill="none" stroke="#64748b" stroke-width="1.35" d="M598.09,-229.13C629.99,-217.87 670.23,-203.56 706,-190.5 736.89,-179.22 770.87,-166.53 800.14,-155.51"/>
<polygon fill="#64748b" stroke="#64748b" stroke-width="1.35" points="801.37,-158.04 807.87,-152.6 799.4,-152.8 801.37,-158.04"/>
<text text-anchor="middle" x="768.5" y="-180.9" font-family="Noto Sans CJK SC" font-size="12.00" fill="#334155">需质量迭代</text>
</g>
<!-- agent -->
<g id="node7" class="node">
<title>agent</title>
<path fill="#ffffff" stroke="#475569" stroke-width="1.35" d="M1181,-152.5C1181,-152.5 1013,-152.5 1013,-152.5 1007,-152.5 1001,-146.5 1001,-140.5 1001,-140.5 1001,-112.5 1001,-112.5 1001,-106.5 1007,-100.5 1013,-100.5 1013,-100.5 1181,-100.5 1181,-100.5 1187,-100.5 1193,-106.5 1193,-112.5 1193,-112.5 1193,-140.5 1193,-140.5 1193,-146.5 1187,-152.5 1181,-152.5"/>
<text text-anchor="middle" x="1097" y="-131.5" font-family="Noto Sans CJK SC" font-size="15.00" fill="#0f172a">Agent</text>
<text text-anchor="middle" x="1097" y="-114.5" font-family="Noto Sans CJK SC" font-size="15.00" fill="#0f172a">模型自主决定步骤与工具</text>
</g>
<!-- decide&#45;&gt;agent -->
<g id="edge6" class="edge">
<title>decide&#45;&gt;agent</title>
<path fill="none" stroke="#64748b" stroke-width="1.35" d="M614.82,-233.31C703.27,-214.14 854.89,-181.2 985,-152.5 987.58,-151.93 990.19,-151.35 992.82,-150.77"/>
<polygon fill="#64748b" stroke="#64748b" stroke-width="1.35" points="993.58,-153.47 1000.78,-149.01 992.37,-148 993.58,-153.47"/>
<text text-anchor="middle" x="886.5" y="-180.9" font-family="Noto Sans CJK SC" font-size="12.00" fill="#334155">步骤未知</text>
</g>
<!-- low -->
<g id="node8" class="node">
<title>low</title>
<ellipse fill="#ecfdf5" stroke="#059669" stroke-width="1.35" cx="263" cy="-24.75" rx="101.65" ry="25"/>
<text text-anchor="middle" x="263" y="-21.25" font-family="Noto Sans CJK SC" font-size="15.00" fill="#0f172a">确定性高 / 可审计</text>
</g>
<!-- chain&#45;&gt;low -->
<g id="edge7" class="edge">
<title>chain&#45;&gt;low</title>
<path fill="none" stroke="#64748b" stroke-width="1.35" d="M120.95,-100.33C149.52,-85.32 185.7,-66.33 214.4,-51.26"/>
<polygon fill="#64748b" stroke="#64748b" stroke-width="1.35" points="215.74,-53.72 221.52,-47.52 213.14,-48.76 215.74,-53.72"/>
</g>
<!-- parallel&#45;&gt;low -->
<g id="edge8" class="edge">
<title>parallel&#45;&gt;low</title>
<path fill="none" stroke="#64748b" stroke-width="1.35" d="M263,-100.33C263,-87.42 263,-71.57 263,-57.8"/>
<polygon fill="#64748b" stroke="#64748b" stroke-width="1.35" points="265.8,-57.54 263,-49.54 260.2,-57.54 265.8,-57.54"/>
</g>
<!-- routing&#45;&gt;low -->
<g id="edge9" class="edge">
<title>routing&#45;&gt;low</title>
<path fill="none" stroke="#64748b" stroke-width="1.35" d="M412.79,-100.46C382.5,-85.35 344.02,-66.15 313.64,-51.01"/>
<polygon fill="#64748b" stroke="#64748b" stroke-width="1.35" points="314.52,-48.31 306.11,-47.25 312.02,-53.32 314.52,-48.31"/>
</g>
<!-- high -->
<g id="node9" class="node">
<title>high</title>
<ellipse fill="#fff7ed" stroke="#ea580c" stroke-width="1.35" cx="874" cy="-24.75" rx="112.36" ry="25"/>
<text text-anchor="middle" x="874" y="-21.25" font-family="Noto Sans CJK SC" font-size="15.00" fill="#0f172a">动态性高 / 自主性强</text>
</g>
<!-- orch&#45;&gt;high -->
<g id="edge10" class="edge">
<title>orch&#45;&gt;high</title>
<path fill="none" stroke="#64748b" stroke-width="1.35" d="M715.97,-100.46C747.95,-85.34 788.59,-66.13 820.64,-50.98"/>
<polygon fill="#64748b" stroke="#64748b" stroke-width="1.35" points="822.14,-53.36 828.17,-47.41 819.74,-48.3 822.14,-53.36"/>
</g>
<!-- eval&#45;&gt;high -->
<g id="edge11" class="edge">
<title>eval&#45;&gt;high</title>
<path fill="none" stroke="#64748b" stroke-width="1.35" d="M874,-100.33C874,-87.42 874,-71.57 874,-57.8"/>
<polygon fill="#64748b" stroke="#64748b" stroke-width="1.35" points="876.8,-57.54 874,-49.54 871.2,-57.54 876.8,-57.54"/>
</g>
<!-- agent&#45;&gt;high -->
<g id="edge12" class="edge">
<title>agent&#45;&gt;high</title>
<path fill="none" stroke="#64748b" stroke-width="1.35" d="M1041.02,-100.46C1006.95,-85.22 963.6,-65.83 929.61,-50.62"/>
<polygon fill="#64748b" stroke="#64748b" stroke-width="1.35" points="930.51,-47.96 922.06,-47.25 928.22,-53.07 930.51,-47.96"/>
</g>
</g>
</svg>
